<svg xmlns="http://www.w3.org/2000/svg" width="512" height="512" viewBox="0 0 512 512">
  <rect width="512" height="512" rx="92.16" fill="#1a1d2e"/>
  <path d="
    M256 71.68
    C116.73599999999999 71.68 92.16 161.792 92.16 251.904
    L92.16 391.168
    L138.0352 353.4848
    L183.91039999999998 391.168
    L229.7856 353.4848
    L282.2144 391.168
    L328.0896 353.4848
    L373.96479999999997 391.168
    L419.84000000000003 353.4848
    L419.84000000000003 251.904
    C419.84000000000003 161.792 395.264 71.68 256 71.68
    Z" fill="#2d3148"/>
  <path d="
    M256 71.68
    C354.304 71.68 395.264 137.216 403.456 210.94400000000002
    L403.456 235.52
    C354.304 202.752 296.96 186.368 256 186.368
    C215.04 186.368 157.696 202.752 108.54399999999998 235.52
    L108.54399999999998 210.94400000000002
    C116.73599999999999 137.216 157.696 71.68 256 71.68
    Z" fill="#3a3f5a"/>
  <ellipse cx="256" cy="223.744" rx="68.8128" ry="65.536" fill="#d4a54a"/>
  <ellipse cx="269.1072" cy="228.4544" rx="29.4912" ry="39.3216" fill="#1a1d2e"/>
  <circle cx="236.3392" cy="211.96800000000002" r="14.7456" fill="#f0d080"/>
</svg>